{
  "accessors": [
    {
      "bufferView": 2,
      "componentType": 5126,
      "count": 77,
      "max": [
        3.556410074234009,
        0.7425400018692017,
        3.803999900817871
      ],
      "min": [
        0.08676999807357788,
        0.2618800103664398,
        0.5477200150489807
      ],
      "type": "VEC3"
    },
    {
      "bufferView": 2,
      "byteOffset": 924,
      "componentType": 5126,
      "count": 77,
      "max": [
        0.9847227931022644,
        1.0,
        0.9864972829818726
      ],
      "min": [
        -0.984211802482605,
        0.163151353597641,
        -0.9865782260894775
      ],
      "type": "VEC3"
    },
    {
      "bufferView": 1,
      "componentType": 5126,
      "count": 77,
      "max": [
        0.0,
        0.0
      ],
      "min": [
        0.0,
        0.0
      ],
      "type": "VEC2"
    },
    {
      "bufferView": 0,
      "componentType": 5125,
      "count": 384,
      "type": "SCALAR"
    },
    {
      "bufferView": 2,
      "byteOffset": 1848,
      "componentType": 5126,
      "count": 7037,
      "max": [
        4.770830154418945,
        3.58555006980896,
        3.9800798892974854
      ],
      "min": [
        -2.478529930114746,
        -4.111690044403076,
        -1.6845099925994873
      ],
      "type": "VEC3"
    },
    {
      "bufferView": 2,
      "byteOffset": 86292,
      "componentType": 5126,
      "count": 7037,
      "max": [
        1.0,
        1.0,
        1.0
      ],
      "min": [
        -1.0,
        -1.0,
        -1.0
      ],
      "type": "VEC3"
    },
    {
      "bufferView": 1,
      "byteOffset": 616,
      "componentType": 5126,
      "count": 7037,
      "max": [
        1.0,
        1.0
      ],
      "min": [
        0.0,
        0.0
      ],
      "type": "VEC2"
    },
    {
      "bufferView": 1,
      "byteOffset": 56912,
      "componentType": 5126,
      "count": 7037,
      "max": [
        1.0,
        1.0
      ],
      "min": [
        0.0,
        0.0
      ],
      "type": "VEC2"
    },
    {
      "bufferView": 0,
      "byteOffset": 1536,
      "componentType": 5125,
      "count": 14904,
      "type": "SCALAR"
    },
    {
      "bufferView": 2,
      "byteOffset": 170736,
      "componentType": 5126,
      "count": 294,
      "max": [
        0.7401900291442871,
        0.7708600163459778,
        2.073390007019043
      ],
      "min": [
        -1.0,
        -0.49147000908851624,
        -0.1179099977016449
      ],
      "type": "VEC3"
    },
    {
      "bufferView": 2,
      "byteOffset": 174264,
      "componentType": 5126,
      "count": 294,
      "max": [
        0.9999999403953552,
        0.9993062019348145,
        0.9330463409423828
      ],
      "min": [
        -0.9999706149101257,
        -0.9993852972984314,
        -0.9382884502410889
      ],
      "type": "VEC3"
    },
    {
      "bufferView": 0,
      "byteOffset": 61152,
      "componentType": 5125,
      "count": 1728,
      "type": "SCALAR"
    },
    {
      "bufferView": 2,
      "byteOffset": 177792,
      "componentType": 5126,
      "count": 294,
      "max": [
        0.7551800012588501,
        0.4801599979400635,
        2.7844600677490234
      ],
      "min": [
        -1.0,
        -0.5745999813079834,
        -0.21462999284267426
      ],
      "type": "VEC3"
    },
    {
      "bufferView": 2,
      "byteOffset": 181320,
      "componentType": 5126,
      "count": 294,
      "max": [
        0.9954144358634949,
        0.9984921216964722,
        0.98189377784729
      ],
      "min": [
        -0.9983763098716736,
        -0.9997872710227966,
        -0.9901431202888489
      ],
      "type": "VEC3"
    },
    {
      "bufferView": 0,
      "byteOffset": 68064,
      "componentType": 5125,
      "count": 1728,
      "type": "SCALAR"
    },
    {
      "bufferView": 2,
      "byteOffset": 184848,
      "componentType": 5126,
      "count": 150,
      "max": [
        0.710889995098114,
        -0.048909999430179596,
        1.391890048980713
      ],
      "min": [
        -0.9700800180435181,
        -0.6836599707603455,
        0.2861599922180176
      ],
      "type": "VEC3"
    },
    {
      "bufferView": 2,
      "byteOffset": 186648,
      "componentType": 5126,
      "count": 150,
      "max": [
        0.9997112154960632,
        0.9914314150810242,
        0.9461807012557983
      ],
      "min": [
        -0.9996958374977112,
        -0.9922722578048706,
        -0.9628407955169678
      ],
      "type": "VEC3"
    },
    {
      "bufferView": 0,
      "byteOffset": 74976,
      "componentType": 5125,
      "count": 864,
      "type": "SCALAR"
    },
    {
      "bufferView": 2,
      "byteOffset": 188448,
      "componentType": 5126,
      "count": 150,
      "max": [
        0.18887999653816223,
        0.09459000080823898,
        1.4513499736785889
      ],
      "min": [
        -0.9742299914360046,
        -0.683430016040802,
        0.5011199712753296
      ],
      "type": "VEC3"
    },
    {
      "bufferView": 2,
      "byteOffset": 190248,
      "componentType": 5126,
      "count": 150,
      "max": [
        0.9998034834861755,
        0.9950286746025085,
        0.931970477104187
      ],
      "min": [
        -0.999798595905304,
        -0.994235098361969,
        -0.9387364387512207
      ],
      "type": "VEC3"
    },
    {
      "bufferView": 0,
      "byteOffset": 78432,
      "componentType": 5125,
      "count": 864,
      "type": "SCALAR"
    },
    {
      "bufferView": 2,
      "byteOffset": 192048,
      "componentType": 5126,
      "count": 294,
      "max": [
        0.7247700095176697,
        0.09546999633312225,
        1.714609980583191
      ],
      "min": [
        -0.026590000838041306,
        -2.8730499744415283,
        -0.300570011138916
      ],
      "type": "VEC3"
    },
    {
      "bufferView": 2,
      "byteOffset": 195576,
      "componentType": 5126,
      "count": 294,
      "max": [
        0.9998673796653748,
        0.9821568131446838,
        0.940179169178009
      ],
      "min": [
        -0.9999979138374329,
        -0.9888176918029785,
        -0.9121496677398682
      ],
      "type": "VEC3"
    },
    {
      "bufferView": 0,
      "byteOffset": 81888,
      "componentType": 5125,
      "count": 1728,
      "type": "SCALAR"
    },
    {
      "bufferView": 2,
      "byteOffset": 199104,
      "componentType": 5126,
      "count": 178,
      "max": [
        1.0,
        1.0,
        0.017170000821352005
      ],
      "min": [
        -1.0,
        -1.0,
        -0.017170000821352005
      ],
      "type": "VEC3"
    },
    {
      "bufferView": 2,
      "byteOffset": 201240,
      "componentType": 5126,
      "count": 178,
      "max": [
        1.0,
        1.0,
        1.0
      ],
      "min": [
        -1.0,
        -1.0,
        -1.0
      ],
      "type": "VEC3"
    },
    {
      "bufferView": 0,
      "byteOffset": 88800,
      "componentType": 5125,
      "count": 420,
      "type": "SCALAR"
    },
    {
      "bufferView": 2,
      "byteOffset": 203376,
      "componentType": 5126,
      "count": 152,
      "max": [
        0.6575800180435181,
        0.21743999421596527,
        0.009309999644756317
      ],
      "min": [
        -0.6686699986457825,
        -0.9772800207138062,
        -0.009080000221729279
      ],
      "type": "VEC3"
    },
    {
      "bufferView": 2,
      "byteOffset": 205200,
      "componentType": 5126,
      "count": 152,
      "max": [
        1.0,
        0.9510560035705566,
        1.0
      ],
      "min": [
        -1.0,
        -1.0,
        -1.0
      ],
      "type": "VEC3"
    },
    {
      "bufferView": 0,
      "byteOffset": 90480,
      "componentType": 5125,
      "count": 234,
      "type": "SCALAR"
    },
    {
      "bufferView": 2,
      "byteOffset": 207024,
      "componentType": 5126,
      "count": 4,
      "max": [
        0.6434100270271301,
        0.08540999889373779,
        0.24192999303340912
      ],
      "min": [
        -0.6434100270271301,
        -0.08540999889373779,
        -0.24192999303340912
      ],
      "type": "VEC3"
    },
    {
      "bufferView": 2,
      "byteOffset": 207072,
      "componentType": 5126,
      "count": 4,
      "max": [
        0.0,
        0.9429619312286377,
        0.33290067315101624
      ],
      "min": [
        0.0,
        0.9429619312286377,
        0.33290067315101624
      ],
      "type": "VEC3"
    },
    {
      "bufferView": 1,
      "byteOffset": 113208,
      "componentType": 5126,
      "count": 4,
      "max": [
        0.0,
        0.0
      ],
      "min": [
        0.0,
        0.0
      ],
      "type": "VEC2"
    },
    {
      "bufferView": 1,
      "byteOffset": 113240,
      "componentType": 5126,
      "count": 4,
      "max": [
        0.9386600255966187,
        0.3018200099468231
      ],
      "min": [
        0.9138399958610535,
        0.23756000399589539
      ],
      "type": "VEC2"
    },
    {
      "bufferView": 0,
      "byteOffset": 91416,
      "componentType": 5125,
      "count": 6,
      "type": "SCALAR"
    }
  ],
  "asset": {
    "extras": {
      "author": "SeanNicolas (https://sketchfab.com/SeanNicolas)",
      "license": "SKETCHFAB Standard (https://sketchfab.com/licenses)",
      "source": "https://sketchfab.com/3d-models/80s-terminal-03ba55722b1b4f6496c55f3aee650bbc",
      "title": "80's Terminal"
    },
    "generator": "Sketchfab-13.83.0",
    "version": "2.0"
  },
  "bufferViews": [
    {
      "buffer": 0,
      "byteLength": 91440,
      "name": "floatBufferViews",
      "target": 34963
    },
    {
      "buffer": 0,
      "byteLength": 113272,
      "byteOffset": 91440,
      "byteStride": 8,
      "name": "floatBufferViews",
      "target": 34962
    },
    {
      "buffer": 0,
      "byteLength": 207120,
      "byteOffset": 204712,
      "byteStride": 12,
      "name": "floatBufferViews",
      "target": 34962
    }
  ],
  "buffers": [
    {
      "byteLength": 411832,
      "uri": "scene.bin"
    }
  ],
  "extensionsUsed": [
    "KHR_materials_transmission"
  ],
  "images": [
    {
      "uri": "textures/ULT_MAT.001_baseColor.png"
    }
  ],
  "materials": [
    {
      "alphaMode": "BLEND",
      "doubleSided": true,
      "extensions": {
        "KHR_materials_transmission": {
          "transmissionFactor": 0.9570817616482432
        }
      },
      "name": "Material.018",
      "pbrMetallicRoughness": {
        "baseColorFactor": [
          0.07368675018334458,
          0.06503201755977042,
          0.06503201755977042,
          0.25
        ],
        "metallicFactor": 0.0,
        "roughnessFactor": 0.0
      }
    },
    {
      "doubleSided": true,
      "name": "Material.014",
      "pbrMetallicRoughness": {
        "baseColorFactor": [
          0.006859967019408941,
          0.008074752986431122,
          0.007927591912448406,
          1.0
        ],
        "metallicFactor": 0.0,
        "roughnessFactor": 0.6
      }
    },
    {
      "doubleSided": true,
      "name": "Material.015",
      "pbrMetallicRoughness": {
        "baseColorFactor": [
          0.03307107090950012,
          0.0469585619866848,
          0.03998284786939621,
          1.0
        ],
        "metallicFactor": 0.0,
        "roughnessFactor": 0.6
      }
    },
    {
      "doubleSided": true,
      "name": "Material.011",
      "pbrMetallicRoughness": {
        "baseColorFactor": [
          0.15231989324092865,
          0.15231989324092865,
          0.15231989324092865,
          1.0
        ],
        "metallicFactor": 0.0,
        "roughnessFactor": 0.6
      }
    },
    {
      "doubleSided": true,
      "name": "Material.010",
      "pbrMetallicRoughness": {
        "baseColorFactor": [
          0.7907625436782837,
          0.8000000715255737,
          0.64754319190979,
          1.0
        ],
        "metallicFactor": 0.0,
        "roughnessFactor": 0.6
      }
    },
    {
      "doubleSided": true,
      "name": "Material.026",
      "pbrMetallicRoughness": {
        "baseColorFactor": [
          0.06193931710624939,
          0.07818111821073148,
          0.07418339441291157,
          1.0
        ],
        "metallicFactor": 0.0,
        "roughnessFactor": 0.12823103161448368
      }
    },
    {
      "doubleSided": true,
      "name": "ULT_MAT.001",
      "pbrMetallicRoughness": {
        "baseColorTexture": {
          "index": 0
        },
        "metallicFactor": 0.0,
        "roughnessFactor": 0.6
      }
    }
  ],
  "meshes": [
    {
      "name": "Cube.003_0",
      "primitives": [
        {
          "attributes": {
            "NORMAL": 1,
            "POSITION": 0,
            "TEXCOORD_0": 2
          },
          "indices": 3,
          "material": 5,
          "mode": 4
        }
      ]
    },
    {
      "name": "Cube.003_1",
      "primitives": [
        {
          "attributes": {
            "NORMAL": 5,
            "POSITION": 4,
            "TEXCOORD_0": 6,
            "TEXCOORD_1": 7
          },
          "indices": 8,
          "material": 6,
          "mode": 4
        }
      ]
    },
    {
      "name": "BezierCurve_0",
      "primitives": [
        {
          "attributes": {
            "NORMAL": 10,
            "POSITION": 9
          },
          "indices": 11,
          "material": 3,
          "mode": 4
        }
      ]
    },
    {
      "name": "BezierCurve.001_0",
      "primitives": [
        {
          "attributes": {
            "NORMAL": 13,
            "POSITION": 12
          },
          "indices": 14,
          "material": 3,
          "mode": 4
        }
      ]
    },
    {
      "name": "BezierCurve.002_0",
      "primitives": [
        {
          "attributes": {
            "NORMAL": 16,
            "POSITION": 15
          },
          "indices": 17,
          "material": 4,
          "mode": 4
        }
      ]
    },
    {
      "name": "BezierCurve.003_0",
      "primitives": [
        {
          "attributes": {
            "NORMAL": 19,
            "POSITION": 18
          },
          "indices": 20,
          "material": 4,
          "mode": 4
        }
      ]
    },
    {
      "name": "BezierCurve.004_0",
      "primitives": [
        {
          "attributes": {
            "NORMAL": 22,
            "POSITION": 21
          },
          "indices": 23,
          "material": 3,
          "mode": 4
        }
      ]
    },
    {
      "name": "Cube_0",
      "primitives": [
        {
          "attributes": {
            "NORMAL": 25,
            "POSITION": 24
          },
          "indices": 26,
          "material": 1,
          "mode": 4
        }
      ]
    },
    {
      "name": "Cube_1",
      "primitives": [
        {
          "attributes": {
            "NORMAL": 28,
            "POSITION": 27
          },
          "indices": 29,
          "material": 2,
          "mode": 4
        }
      ]
    },
    {
      "name": "Cube.002_0",
      "primitives": [
        {
          "attributes": {
            "NORMAL": 31,
            "POSITION": 30,
            "TEXCOORD_0": 32,
            "TEXCOORD_1": 33
          },
          "indices": 34,
          "material": 0,
          "mode": 4
        }
      ]
    }
  ],
  "nodes": [
    {
      "children": [
        1
      ],
      "matrix": [
        1.0,
        0.0,
        0.0,
        0.0,
        0.0,
        2.220446049250313e-16,
        -1.0,
        0.0,
        0.0,
        1.0,
        2.220446049250313e-16,
        0.0,
        0.0,
        0.0,
        0.0,
        1.0
      ],
      "name": "Sketchfab_model"
    },
    {
      "children": [
        2,
        5,
        7,
        9,
        11,
        13,
        15,
        18
      ],
      "name": "Root"
    },
    {
      "children": [
        3,
        4
      ],
      "matrix": [
        -0.5510900000000001,
        -0.0,
        0.0,
        0.0,
        0.0,
        -0.5510900000000001,
        0.0,
        0.0,
        0.0,
        0.0,
        0.5510900000000001,
        0.0,
        1.4915299999999998,
        -0.41014,
        0.91416,
        1.0
      ],
      "name": "Cube.003"
    },
    {
      "mesh": 0,
      "name": "Cube.003_0"
    },
    {
      "mesh": 1,
      "name": "Cube.003_1"
    },
    {
      "children": [
        6
      ],
      "matrix": [
        0.0,
        0.0,
        -1.0,
        0.0,
        0.0,
        1.0,
        0.0,
        0.0,
        1.0,
        -0.0,
        0.0,
        0.0,
        0.8452000000000001,
        1.66747,
        0.7514500000000001,
        1.0
      ],
      "name": "BezierCurve"
    },
    {
      "mesh": 2,
      "name": "BezierCurve_0"
    },
    {
      "children": [
        8
      ],
      "matrix": [
        0.0,
        0.0,
        -1.0,
        0.0,
        0.0,
        1.0,
        0.0,
        0.0,
        1.0,
        -0.0,
        0.0,
        0.0,
        0.6570300000000001,
        1.66758,
        0.7514500000000001,
        1.0
      ],
      "name": "BezierCurve.001"
    },
    {
      "mesh": 3,
      "name": "BezierCurve.001_0"
    },
    {
      "children": [
        10
      ],
      "matrix": [
        0.0,
        0.0,
        -1.0,
        0.0,
        0.0,
        1.0,
        0.0,
        0.0,
        1.0,
        -0.0,
        0.0,
        0.0,
        0.8452000000000001,
        1.66747,
        0.7514500000000001,
        1.0
      ],
      "name": "BezierCurve.002"
    },
    {
      "mesh": 4,
      "name": "BezierCurve.002_0"
    },
    {
      "children": [
        12
      ],
      "matrix": [
        0.0,
        0.0,
        -1.0,
        0.0,
        0.0,
        1.0,
        0.0,
        0.0,
        1.0,
        -0.0,
        0.0,
        0.0,
        0.8452000000000001,
        1.66747,
        0.25292000000000003,
        1.0
      ],
      "name": "BezierCurve.003"
    },
    {
      "mesh": 5,
      "name": "BezierCurve.003_0"
    },
    {
      "children": [
        14
      ],
      "matrix": [
        0.0,
        0.0,
        -1.0,
        0.0,
        0.0,
        1.0,
        0.0,
        0.0,
        1.0,
        -0.0,
        0.0,
        0.0,
        -1.2165899999999998,
        1.56395,
        0.7514500000000001,
        1.0
      ],
      "name": "BezierCurve.004"
    },
    {
      "mesh": 6,
      "name": "BezierCurve.004_0"
    },
    {
      "children": [
        16,
        17
      ],
      "matrix": [
        0.38029,
        0.13631000000000001,
        0.0,
        0.0,
        -0.13631000000000001,
        0.38029,
        0.0,
        0.0,
        0.0,
        0.0,
        0.40398000000000006,
        0.0,
        2.3228499999999994,
        0.36402000000000007,
        2.05633,
        1.0
      ],
      "name": "Cube"
    },
    {
      "mesh": 7,
      "name": "Cube_0"
    },
    {
      "mesh": 8,
      "name": "Cube_1"
    },
    {
      "children": [
        19
      ],
      "matrix": [
        -0.5510900000000001,
        -0.0,
        0.0,
        0.0,
        0.0,
        -0.5510900000000001,
        0.0,
        0.0,
        0.0,
        0.0,
        0.5510900000000001,
        0.0,
        2.1009100000000003,
        -0.8569300000000001,
        0.6876600000000002,
        1.0
      ],
      "name": "Cube.002"
    },
    {
      "mesh": 9,
      "name": "Cube.002_0"
    }
  ],
  "samplers": [
    {
      "magFilter": 9729,
      "minFilter": 9987,
      "wrapS": 10497,
      "wrapT": 10497
    }
  ],
  "scene": 0,
  "scenes": [
    {
      "name": "Sketchfab_Scene",
      "nodes": [
        0
      ]
    }
  ],
  "textures": [
    {
      "sampler": 0,
      "source": 0
    }
  ]
}
